<?xml version="1.0" encoding="UTF-8" standalone="no"?>
<svg
   xmlns:dc="http://purl.org/dc/elements/1.1/"
   xmlns:cc="http://creativecommons.org/ns#"
   xmlns:rdf="http://www.w3.org/1999/02/22-rdf-syntax-ns#"
   xmlns:svg="http://www.w3.org/2000/svg"
   xmlns="http://www.w3.org/2000/svg"
   xmlns:sodipodi="http://sodipodi.sourceforge.net/DTD/sodipodi-0.dtd"
   xmlns:inkscape="http://www.inkscape.org/namespaces/inkscape"
   sodipodi:docname="drawing.svg"
   inkscape:version="1.0 (4035a4fb49, 2020-05-01)"
   id="svg8"
   version="1.1"
   viewBox="0 0 154.87436 50.970448"
   height="50.970448mm"
   width="154.87436mm">
  <defs
     id="defs2" />
  <sodipodi:namedview
     inkscape:window-maximized="1"
     inkscape:window-y="-8"
     inkscape:window-x="-8"
     inkscape:window-height="1057"
     inkscape:window-width="1853"
     showgrid="false"
     inkscape:document-rotation="0"
     inkscape:current-layer="layer1"
     inkscape:document-units="mm"
     inkscape:cy="-94.183248"
     inkscape:cx="147.4975"
     inkscape:zoom="0.96588095"
     inkscape:pageshadow="2"
     inkscape:pageopacity="1"
     borderopacity="1.0"
     bordercolor="#666666"
     pagecolor="#ffffff"
     id="base" />
  <metadata
     id="metadata5">
    <rdf:RDF>
      <cc:Work
         rdf:about="">
        <dc:format>image/svg+xml</dc:format>
        <dc:type
           rdf:resource="http://purl.org/dc/dcmitype/StillImage" />
        <dc:title></dc:title>
      </cc:Work>
    </rdf:RDF>
  </metadata>
  <g
     transform="translate(-27.757026,-56.566629)"
     id="layer1"
     inkscape:groupmode="layer"
     inkscape:label="Layer 1">
    <g
       transform="matrix(0.66200755,0,0,0.66200755,-11.47283,17.849689)"
       id="g847">
      <path
         id="path863"
         d="m 97.623509,117.48622 v -1.32292 h 1.455208 1.455213 v 1.32292 1.32292 h -1.455213 -1.455208 z m 0,-10.98021 v -1.45521 h 1.455208 1.455213 v 1.45521 1.45521 h -1.455213 -1.455208 z m 5.556251,0 v -1.45521 h 1.32292 1.32291 v 1.45521 1.45521 h -1.32291 -1.32292 z m -16.404168,-2.77812 v -1.32292 h 1.455209 1.455208 v 1.32292 1.32291 h -1.455208 -1.455209 z m 5.55625,-2.64584 v -1.322913 h 1.322917 1.322917 v 1.322913 1.32292 H 93.654759 92.331842 Z M 108.73601,98.303929 V 96.84872 h 1.32292 1.32291 v 1.455209 1.455208 h -1.32291 -1.32292 z M 94.977676,90.234137 v -1.322916 h 1.322916 1.322917 v 1.322916 1.322917 h -1.322917 -1.322916 z m 16.404164,-5.55625 v -1.322916 h 1.32292 1.32292 v 1.322916 1.322917 h -1.32292 -1.32292 z m -8.20208,-2.645833 v -1.322917 h 1.32292 1.32291 v 1.322917 1.322917 h -1.32291 -1.32292 z"
         style="fill:#d0d0d0;fill-opacity:1;stroke-width:0.264583" />
      <path
         id="path861"
         d="m 89.686009,122.91018 v -1.45521 h 1.322917 1.322916 v 1.45521 1.45521 h -1.322916 -1.322917 z m 10.847921,-10.98021 v -1.32292 h 1.32291 1.32292 v 1.32292 1.32292 h -1.32292 -1.32291 z m 10.84791,-16.404166 v -1.322917 h 1.32292 1.32292 v 1.322917 1.322916 h -1.32292 -1.32292 z m -5.55625,-8.069792 v -1.455208 h 1.45521 1.45521 v 1.455208 1.455209 h -1.45521 -1.45521 z m 0,-5.423958 v -1.322917 h 1.45521 1.45521 v 1.322917 1.322917 h -1.45521 -1.45521 z m 5.55625,0 v -1.322917 h 1.32292 1.32292 v 1.322917 1.322917 h -1.32292 -1.32292 z"
         style="fill:#b9b9b9;fill-opacity:1;stroke-width:0.264583" />
      <path
         id="path859"
         d="m 94.977676,111.92997 v -1.32292 h 1.322916 1.322917 v 1.32292 1.32292 H 96.300592 94.977676 Z M 84.129759,99.626845 V 96.84872 h 1.322917 1.322916 v 2.778125 2.778125 h -1.322916 -1.322917 z m 5.55625,-1.322916 V 96.84872 h 1.322917 1.322916 v 1.455209 1.455208 h -1.322916 -1.322917 z m -2.910417,-5.423958 v -1.322917 h 1.455209 1.455208 v 1.322917 1.322916 h -1.455208 -1.455209 z m 27.252088,-5.423959 v -1.455208 h 1.4552 1.45521 v 1.455208 1.455209 h -1.45521 -1.4552 z"
         style="fill:#a3a3a3;fill-opacity:1;stroke-width:0.264583" />
      <path
         id="path857"
         d="m 92.331842,117.48622 v -1.32292 h 1.322917 1.322917 v 1.32292 1.32292 h -1.322917 -1.322917 z m -2.645833,-10.98021 v -1.45521 h 2.645833 2.645834 v 1.45521 1.45521 H 92.331842 89.686009 Z M 103.17976,90.234137 v -1.322916 h 1.32292 1.32291 v 1.322916 1.322917 h -1.32291 -1.32292 z m -5.556251,-2.778125 v -1.455208 h 1.455208 1.455213 v 1.455208 1.455209 h -1.455213 -1.455208 z m 8.202081,-2.778125 v -1.322916 h 1.45521 1.45521 v 1.322916 1.322917 h -1.45521 -1.45521 z m -8.202081,-5.423958 v -1.455208 h 1.455208 1.455213 v 1.455208 1.455208 h -1.455213 -1.455208 z"
         style="fill:#8c8c8c;fill-opacity:1;stroke-width:0.264583" />
      <path
         id="path855"
         d="m 86.775592,127.01122 v -2.64583 h 1.455209 1.455208 v 2.64583 2.64583 h -1.455208 -1.455209 z m 5.55625,1.32292 v -1.32292 h 1.322917 1.322917 v 1.32292 1.32291 h -1.322917 -1.322917 z m 5.291667,-32.808336 v -1.322917 h 1.455208 1.455213 v 1.322917 1.322916 h -1.455213 -1.455208 z m -2.645833,-13.49375 v -1.322917 h 1.322916 1.322917 v 1.322917 1.322917 h -1.322917 -1.322916 z"
         style="fill:#767676;fill-opacity:1;stroke-width:0.264583" />
      <path
         id="path853"
         d="m 103.17976,109.28414 v -1.32292 h 1.32292 1.32291 v 1.32292 1.32291 h -1.32291 -1.32292 z m 2.64583,-5.55625 v -1.32292 h 1.45521 1.45521 v 1.32292 1.32291 h -1.45521 -1.45521 z m 8.20209,-10.847919 v -1.322917 h 1.4552 1.45521 v 1.322917 1.322916 h -1.45521 -1.4552 z M 92.331842,84.677887 v -1.322916 h 1.322917 1.322917 v 1.322916 1.322917 h -1.322917 -1.322917 z m 8.202088,0 v -1.322916 h 1.32291 1.32292 v 1.322916 1.322917 h -1.32292 -1.32291 z m 10.84791,-5.423958 v -1.455208 h 1.32292 1.32292 v 1.455208 1.455208 h -1.32292 -1.32292 z"
         style="fill:#606060;fill-opacity:1;stroke-width:0.264583" />
      <path
         id="path851"
         d="m 89.686009,120.13205 v -1.32291 h 1.322917 1.322916 v 1.32291 1.32292 h -1.322916 -1.322917 z m 10.847921,-5.42395 v -1.45521 h 1.32291 1.32292 v 1.45521 1.4552 h -1.32292 -1.32291 z m 8.20208,-13.62605 v -1.322913 h 1.32292 1.32291 v 1.322913 1.32292 h -1.32291 -1.32292 z M 84.129759,95.525804 v -1.322917 h 1.322917 1.322916 v 1.322917 1.322916 h -1.322916 -1.322917 z m 10.847917,0 v -1.322917 h 1.322916 1.322917 v 1.322917 1.322916 h -1.322917 -1.322916 z m -5.291667,-8.069792 v -1.455208 h 1.322917 1.322916 v 1.455208 1.455209 H 91.008926 89.686009 Z M 100.53393,76.475804 v -1.322917 h 1.32291 1.32292 v 1.322917 1.322917 h -1.32292 -1.32291 z"
         style="fill:#494949;fill-opacity:1;stroke-width:0.264583" />
      <path
         id="path849"
         d="M 59.258926,96.981012 V 58.484137 H 97.755801 136.25268 V 96.981012 135.47789 H 97.755801 59.258926 Z m 35.71875,30.030208 v -2.64583 h 1.322916 1.322917 v -2.77813 -2.77812 h 1.455208 1.455213 v -1.32292 -1.32292 h 1.32291 1.32292 v -2.77812 -2.77813 h 1.32292 1.32291 v -2.77812 -2.77813 h 1.45521 1.45521 v -1.32291 -1.32292 h 1.32292 1.32291 V 99.626845 96.84872 h 1.32292 1.32292 v -1.322916 -1.322917 h 1.4552 1.45521 v -4.101041 -4.101042 h -1.45521 -1.4552 v -4.101042 -4.101041 h -1.32292 -1.32292 v -1.322917 -1.322917 h -5.42396 -5.42395 v 1.322917 1.322917 h -1.455213 -1.455208 v 1.455208 1.455208 h -1.322917 -1.322916 v 1.322917 1.322917 h -1.322917 -1.322917 v 1.322916 1.322917 h -1.322916 -1.322917 v 2.778125 2.778125 h -1.455208 -1.455209 v 1.322917 1.322916 h -1.322916 -1.322917 v 4.101042 4.101041 h 1.322917 1.322916 v 1.32292 1.32291 h 1.455209 1.455208 v 1.45521 1.45521 h 2.645833 2.645834 v -1.45521 -1.45521 h 1.322916 1.322917 v 2.77813 2.77812 h -1.322917 -1.322916 v 2.77813 2.77812 h -1.322917 -1.322917 v 1.32292 1.32292 h -1.322916 -1.322917 v 2.77812 2.77813 h -1.455208 -1.455209 v 2.64583 2.64583 h 4.101042 4.101042 z M 92.331842,96.981012 v -2.778125 h 1.322917 1.322917 v -1.322916 -1.322917 h 1.322916 1.322917 v -1.322917 -1.322916 h 1.455208 1.455213 v -1.455209 -1.455208 h 1.32291 1.32292 v -1.322917 -1.322916 h 1.32292 1.32291 v 2.778125 2.778125 h -1.32291 -1.32292 v 2.645833 2.645833 h -4.101043 -4.101041 v 2.778125 2.778125 h -1.322917 -1.322917 z"
         style="fill:#000000;fill-opacity:1;stroke-width:0.264583" />
    </g>
    <path
       style="stroke-width:0.244009"
       d="m 121.41288,92.104245 c 1.98794,-1.594882 4.22787,-3.019642 6.4958,-4.146688 1.28796,-0.637954 2.65992,-1.212115 4.03188,-1.743735 0.69998,-0.255188 1.39996,-0.489099 2.12793,-0.723014 0.196,-0.0638 0.36399,-0.106326 0.55999,-0.17012 0.056,-0.02126 0.13999,-0.04253 0.19599,-0.0638 0,0 0.028,0 0.028,0 0,0 0.028,0 0.056,-0.02126 0.36399,-0.106327 0.75598,-0.212653 1.11997,-0.297714 1.67994,-0.4253 3.41589,-0.765541 5.15184,-0.999461 0.72797,-0.10632 1.20396,-0.744272 1.03596,-1.275901 -0.028,-0.08506 -0.056,-0.170118 -0.11199,-0.233912 -0.14,-0.276446 -0.41999,-0.510366 -0.83998,-0.57416 -6.52379,-0.999461 -12.43162,-3.040902 -17.69546,-6.124336 -1.28796,-0.765546 -2.49192,-1.552353 -3.72388,-2.466747 -0.196,-0.318981 -0.64398,-0.531628 -1.11997,-0.57416 -0.41999,-0.06379 -0.86797,0.02126 -1.20396,0.255179 -0.47599,0.340241 0.41998,5.124884 0.78397,7.017478 -6.85979,-0.02126 -13.74758,-0.318982 -20.551366,-0.935669 -2.07194,-0.191388 -4.11587,-0.404032 -6.18781,-0.637952 -0.72798,-0.08506 -1.45596,0.489099 -1.45596,1.020725 0,0.17012 0.056,0.34024 0.14,0.467834 0.112,2.509273 0.22399,5.018549 0.33599,7.527828 0.028,0.510361 0.47598,1.041987 1.20396,1.084522 0.19599,0.02126 0.39198,0.04253 0.58799,0 6.99977,-0.893134 14.027566,-1.467295 21.111346,-1.743741 1.62395,-0.06379 3.2479,-0.106321 4.87185,-0.148853 0.084,1.616147 0.25199,5.55018 0.58798,5.826629 0.112,0.08506 0.224,0.148853 0.36399,0.212653 0.196,0.08506 0.41999,0.148853 0.67198,0.148853 0.61598,-0.02126 1.23196,-0.297714 1.42796,-0.680478 z m -0.27999,-6.507111 c 0,-0.170125 -0.084,-0.361505 -0.168,-0.510366 -0.19599,-0.361506 -0.64398,-0.659214 -1.20396,-0.637947 -7.30778,0.106321 -14.58755,0.531629 -21.839336,1.254634 -1.51195,0.148861 -3.05191,0.318982 -4.56386,0.510367 l -0.25199,-5.571448 c 6.77579,0.744273 13.635586,1.212107 20.495376,1.36096 2.07193,0.04254 4.17187,0.0638 6.24381,0.04254 0.72797,0 1.45595,-0.425302 1.45595,-1.020728 0,-0.04253 0,-0.06379 0,-0.106321 0.028,-0.106326 0,-0.212652 0,-0.34024 -0.25199,-1.360966 -0.47598,-2.700667 -0.72798,-4.061627 4.22787,2.700661 9.09972,4.805902 14.33557,6.166868 0.19599,0.04253 0.41999,0.106321 0.61598,0.148853 -4.53586,1.148313 -8.79173,2.934581 -12.48762,5.23121 -0.55999,0.34024 -1.11997,0.701746 -1.65195,1.084513 -0.112,-1.16958 -0.168,-2.36042 -0.25199,-3.551263 z"
       id="path1708" />
    <text
       id="text2194"
       y="106.04282"
       x="150.84142"
       style="font-size:62.7359px;line-height:1.25;font-family:Calibri;-inkscape-font-specification:'Calibri, Normal';letter-spacing:-0.02614px;word-spacing:0px;stroke-width:1.307"
       xml:space="preserve"><tspan
         style="font-style:normal;font-variant:normal;font-weight:normal;font-stretch:normal;font-size:69.7065px;font-family:Calibri;-inkscape-font-specification:'Calibri, Normal';font-variant-ligatures:normal;font-variant-caps:normal;font-variant-numeric:normal;font-variant-east-asian:normal;stroke-width:1.307"
         y="106.04282"
         x="150.84142"
         id="tspan2192"
         sodipodi:role="line">9</tspan></text>
  </g>
</svg>
