<?xml version="1.0" encoding="UTF-8" standalone="no"?>
<svg
   xmlns:dc="http://purl.org/dc/elements/1.1/"
   xmlns:cc="http://creativecommons.org/ns#"
   xmlns:rdf="http://www.w3.org/1999/02/22-rdf-syntax-ns#"
   xmlns:svg="http://www.w3.org/2000/svg"
   xmlns="http://www.w3.org/2000/svg"
   xmlns:sodipodi="http://sodipodi.sourceforge.net/DTD/sodipodi-0.dtd"
   xmlns:inkscape="http://www.inkscape.org/namespaces/inkscape"
   width="421.77631mm"
   height="424.62015mm"
   viewBox="0 0 421.77631 424.62015"
   version="1.1"
   id="svg12387"
   inkscape:version="1.0 (4035a4fb49, 2020-05-01)"
   sodipodi:docname="learning_story - step4.svg">
  <defs
     id="defs12381" />
  <sodipodi:namedview
     id="base"
     pagecolor="#ffffff"
     bordercolor="#666666"
     borderopacity="1.0"
     inkscape:pageopacity="0.0"
     inkscape:pageshadow="2"
     inkscape:zoom="0.33302682"
     inkscape:cx="363.0131"
     inkscape:cy="950.2992"
     inkscape:document-units="mm"
     inkscape:current-layer="layer1"
     inkscape:document-rotation="0"
     showgrid="false"
     inkscape:window-width="1853"
     inkscape:window-height="1057"
     inkscape:window-x="-8"
     inkscape:window-y="-8"
     inkscape:window-maximized="1" />
  <metadata
     id="metadata12384">
    <rdf:RDF>
      <cc:Work
         rdf:about="">
        <dc:format>image/svg+xml</dc:format>
        <dc:type
           rdf:resource="http://purl.org/dc/dcmitype/StillImage" />
        <dc:title />
      </cc:Work>
    </rdf:RDF>
  </metadata>
  <g
     inkscape:label="Layer 1"
     inkscape:groupmode="layer"
     id="layer1"
     transform="translate(-16.762594,96.290182)">
    <path
       id="path7646-5"
       d="m 88.542879,178.03837 c -8.06393,-4.54182 -7.56765,-17.15123 0.83186,-21.13705 12.575241,-5.96738 23.231841,10.03817 13.051311,19.60233 -3.103468,2.91562 -10.065101,3.68516 -13.883171,1.53472 z m 10.493763,-6.19632 c 3.860718,-3.49393 1.117678,-10.44501 -4.109613,-10.41414 -3.40702,0.0191 -4.79413,0.96887 -5.9811,4.09086 -2.28347,6.00591 5.23525,10.71738 10.090713,6.32328 z m 17.974448,-7.47403 c -19.880788,-8.32043 -13.54746,-38.74572 8.06541,-38.74572 19.59486,0 27.35216,23.82378 11.78918,36.20604 -4.23084,3.36621 -14.68468,4.70343 -19.85459,2.53968 z m 13.39065,-5.34601 c 14.48065,-6.17014 10.23983,-27.86432 -5.44422,-27.85101 -12.86903,0.0118 -19.41714,15.65008 -10.23086,24.43469 4.94177,4.72573 10.00968,5.8303 15.67508,3.41632 z m 104.56569,-9.33942 c -20.55806,-3.89466 -40.96765,-19.10842 -49.97598,-37.25313 l -4.04721,-8.15198 -4.96908,3.3563 c -22.6219,15.27957 -54.51903,4.38586 -62.64581,-21.395373 -0.95002,-3.01394 -2.27253,-5.47981 -2.93875,-5.47981 -3.42466,0 -17.622241,-8.461225 -22.774891,-13.573065 -34.19598,-33.924252 -9.71374,-93.293465 38.471341,-93.293465 h 5.95227 l 2.05868,-4.654029 c 12.35115,-27.921712 45.92808,-42.356845 74.81512,-32.163891 4.07169,1.436726 8.08361,2.843948 8.91535,3.127253 1.00477,0.342177 3.28657,-1.860096 6.79955,-6.562428 34.97513,-46.817082 110.13765,-36.947052 131.83586,17.31216 l 2.71941,6.800269 4.17951,-0.751222 c 62.04532,-11.151889 100.61785,63.843027 55.6159,108.131683 -7.50322,7.38437 -8.30463,8.56134 -9.48964,13.938225 -9.21157,41.796893 -58.27114,65.227233 -98.14159,46.871303 l -6.79417,-3.12795 -7.85568,7.50535 c -16.45503,15.72096 -40.74316,23.33982 -61.73019,19.3638 z m 27.87924,-6.49303 c 13.18215,-3.13514 31.71894,-15.66643 37.39952,-25.28289 2.09165,-3.54091 2.15598,-3.5403 8.05077,0.0808 37.12711,22.80658 90.11488,-1.54138 96.53565,-44.358458 0.60106,-4.00791 1.35286,-5.09008 6.07496,-8.74369 48.41311,-37.459289 10.38035,-115.701182 -49.40604,-101.639164 -3.32236,0.78156 -6.10896,1.341504 -6.19233,1.244491 -0.0838,-0.09677 -1.30274,-3.50392 -2.70947,-7.570898 -19.63197,-56.75665 -97.97673,-64.462911 -128.35542,-12.625463 -3.06084,5.222838 -2.08008,5.084328 -9.49458,1.341389 -29.06555,-14.672254 -64.00562,-1.850605 -76.08556,27.920403 l -2.38625,5.880934 -11.39922,0.525257 c -54.338451,2.503581 -65.801601,78.767111 -14.23745,94.721381 l 5.70404,1.764919 2.17686,6.718146 c 8.70242,26.857993 40.56922,34.666873 60.01186,14.70583 3.17049,-3.25508 5.18121,-4.66753 5.44825,-3.82723 0.23281,0.73245 0.96654,3.14643 1.63044,5.3644 6.11263,20.420883 27.0738,39.797473 47.33838,43.759693 3.04973,0.59634 6.45233,1.29238 7.56131,1.54692 3.10577,0.7127 16.87613,-0.22863 22.33428,-1.52688 z"
       style="fill:#000000;stroke-width:1.00817" />
    <text
       xml:space="preserve"
       style="font-size:72.9438px;line-height:1.25;font-family:Calibri;-inkscape-font-specification:'Calibri, Normal';letter-spacing:-0.0303932px;word-spacing:0px;stroke-width:1.51966"
       x="220.92546"
       y="-10.356238"
       id="text4175-0-6-17"><tspan
         sodipodi:role="line"
         id="tspan4173-2-3-7"
         x="220.92546"
         y="-10.356238"
         style="stroke-width:1.51966">CAR</tspan></text>
    <g
       id="layer1-0"
       inkscape:label="Layer 1"
       transform="matrix(0.23982739,0,0,0.23982739,137.87496,-114.76049)">
      <path
         id="2-3"
         d="m 914.37,544.4 c 13.623,2.787 28.607,4.1805 38.143,18.115 0,0 1.3622,0 1.3622,1.3935 2.7245,-2.787 5.449,-4.1805 9.5358,-4.1805 9.5358,0 16.347,8.361 16.347,16.722 0,2.787 0,4.1805 -1.3622,6.9675 0,0 0,1.3935 1.3622,2.787 0,4.1805 4.0868,6.9675 6.8113,13.935 1.3622,2.787 13.623,2.787 9.5358,19.509 v 1.3935 c 5.4491,6.9675 9.5358,29.263 9.5358,57.133 v 11.148 c -1.3622,-9.7544 -2.7245,-19.509 -5.449,-29.263 -5.449,-37.624 -21.796,-64.101 -42.23,-64.101 -16.347,0 -29.97,15.328 -39.505,37.624 -24.521,55.74 -29.97,139.35 -59.939,160.25 -35.419,5.574 -155.3,23.689 -260.19,40.411 8.1735,-20.902 10.898,-44.592 10.898,-71.068 0,-15.328 -1.3622,-29.263 -2.7245,-43.198 -8.1735,-48.772 -32.694,-85.003 -62.664,-85.003 -21.796,0 -42.23,20.902 -53.128,51.559 -13.623,30.657 -24.521,78.036 -36.781,112.87 -9.5358,22.296 -12.26,41.805 -35.419,41.805 -24.521,2.787 -54.49,2.787 -84.46,1.3935 -64.026,-2.787 -134.86,-6.9675 -193.44,-12.541 -35.419,-4.1805 -49.041,0 -66.751,-18.115 -19.072,-22.296 -31.332,-54.346 -31.332,-89.183 0,-51.559 25.883,-96.151 62.664,-115.66 35.419,-20.902 77.649,-30.657 121.24,-36.231 49.041,-5.574 99.445,-6.9675 148.49,-4.1805 21.796,-33.444 42.23,-64.101 64.026,-82.216 19.072,-12.541 31.332,-18.115 49.041,-20.902 102.17,-11.148 361,-32.05 426.39,80.823 z"
         style="fill:none;stroke:#25221e;stroke-width:2.0653px;stroke-linecap:round;stroke-linejoin:round"
         inkscape:connector-curvature="0" />
      <path
         id="3-4"
         d="m 956.6,601.53 c 27.245,0 50.403,50.166 50.403,111.48 0,61.314 -23.158,111.48 -50.403,111.48 -25.883,0 -49.041,-50.166 -49.041,-111.48 0,-61.314 23.158,-111.48 49.041,-111.48 z"
         style="fill:none;stroke:#25221e;stroke-width:2.0653px;stroke-linecap:round;stroke-linejoin:round"
         inkscape:connector-curvature="0" />
      <path
         id="4-9"
         d="m 959.32,623.82 c 20.434,0 36.781,40.411 36.781,89.183 0,48.772 -16.347,87.79 -36.781,87.79 -21.796,0 -38.143,-39.018 -38.143,-87.79 0,-48.772 16.347,-89.183 38.143,-89.183 z"
         style="fill:none;stroke:#25221e;stroke-width:2.0653px;stroke-linecap:round;stroke-linejoin:round"
         inkscape:connector-curvature="0" />
      <path
         id="5-5"
         d="m 546.56,637.76 c 34.056,0 62.664,55.74 62.664,125.41 0,69.675 -28.607,126.81 -62.664,126.81 -35.419,0 -64.026,-57.133 -64.026,-126.81 0,-69.675 28.607,-125.41 64.026,-125.41 z"
         style="fill:none;stroke:#25221e;stroke-width:2.0653px;stroke-linecap:round;stroke-linejoin:round"
         inkscape:connector-curvature="0" />
      <path
         id="6-0"
         d="m 86.118,782.68 c 25.883,-1.3935 50.403,0 74.924,2.787 2.7245,1.3935 5.449,1.3935 6.8113,1.3935 6.8113,13.935 14.985,22.296 28.607,26.476 1.3622,2.787 1.3622,5.574 2.7245,9.7545 -40.868,-18.115 -96.72,-8.361 -111.7,-26.476 -6.8113,-6.9675 -6.8113,-11.148 -1.3623,-13.935 z"
         style="fill:none;stroke:#25221e;stroke-width:2.0653px;stroke-linecap:round;stroke-linejoin:round"
         inkscape:connector-curvature="0" />
      <path
         id="7-0"
         d="m 316.34,796.62 c -29.97,-4.1805 -64.026,-5.574 -92.633,-8.361 -4.0868,12.541 -10.898,20.902 -23.158,23.689 l 2.7245,11.148 c 38.143,-11.148 96.72,2.787 110.34,-8.361 6.8113,-6.9675 8.1735,-15.328 2.7245,-18.115 z"
         style="fill:none;stroke:#25221e;stroke-width:2.0653px;stroke-linecap:round;stroke-linejoin:round"
         inkscape:connector-curvature="0" />
      <path
         id="8-0"
         d="m 197.82,804.98 h -1.3622 -1.3623 c -17.709,0 -32.694,-30.657 -32.694,-68.281 0,-39.018 14.985,-79.429 58.577,-80.823 17.709,-1.3935 31.332,6.9675 32.694,19.509 2.7245,16.722 -9.5358,37.624 -19.072,57.133 -10.898,20.902 -19.072,72.462 -36.781,72.462 z"
         style="fill:none;stroke:#25221e;stroke-width:2.0653px;stroke-linecap:round;stroke-linejoin:round"
         inkscape:connector-curvature="0" />
      <path
         id="9-8"
         d="m 387.18,563.9 c -2.7245,1.3935 -6.8113,2.787 -10.898,4.1805 h -1.3622 c -2.7245,0 -5.449,1.3935 -8.1735,1.3935 -106.26,15.328 -227.5,55.74 -227.5,178.37 0,12.541 1.3622,25.083 4.0868,36.231 -19.072,-1.3935 -38.143,-2.787 -57.215,-1.3935 -5.449,2.787 -5.449,6.9675 1.3623,13.935 9.5358,11.148 35.419,12.541 64.026,15.328 2.7245,6.9675 6.8113,13.935 10.898,19.509 -8.1735,0 -14.985,-1.3935 -21.796,-1.3935 -35.419,-4.1805 -49.041,0 -66.751,-18.115 -19.072,-22.296 -31.332,-54.346 -31.332,-89.183 0,-51.559 25.883,-96.151 62.664,-115.66 35.419,-20.902 77.649,-30.657 121.24,-36.231 39.505,-4.1805 79.011,-6.9675 118.52,-5.574 h 23.158 2.7245 1.3622 c 1.3622,0 1.3622,1.3935 2.7245,1.3935 v -1.3935 c 4.0868,0 8.1735,0 10.898,-2.787 v 1.3935 h 1.3622 z"
         style="fill:none;stroke:#25221e;stroke-width:2.0653px;stroke-linecap:round;stroke-linejoin:round"
         inkscape:connector-curvature="0" />
      <path
         id="10-6"
         d="m 917.09,545.79 c 13.623,1.3935 27.245,4.1805 35.419,16.722 0,0 1.3622,0 1.3622,1.3935 2.7245,-2.787 5.449,-4.1805 9.5358,-4.1805 9.5358,0 16.347,8.361 16.347,16.722 0,2.787 0,4.1805 -1.3622,6.9675 0,0 0,1.3935 1.3622,2.787 0,4.1805 4.0868,6.9675 6.8113,13.935 1.3622,2.787 13.623,2.787 9.5358,19.509 v 1.3935 c 5.4491,6.9675 9.5358,29.263 9.5358,57.133 v 11.148 c -1.3622,-9.7544 -2.7245,-19.509 -5.449,-29.263 -5.449,-37.624 -21.796,-64.101 -42.23,-64.101 -16.347,0 -29.97,15.328 -39.505,37.624 -24.521,55.74 -29.97,139.35 -59.939,160.25 -35.419,5.574 -155.3,23.689 -260.19,40.411 8.1735,-20.902 10.898,-44.592 10.898,-71.068 0,-15.328 -1.3622,-29.263 -2.7245,-43.198 -8.1735,-48.772 -32.694,-85.003 -62.664,-85.003 -21.796,0 -42.23,20.902 -53.128,51.559 -13.623,30.657 -24.521,78.036 -36.781,112.87 -9.5358,22.296 -12.26,41.805 -35.419,41.805 -24.521,2.787 -54.49,2.787 -84.46,1.3935 l -69.475,-4.1805 c -2.7245,-5.574 -5.449,-12.541 -6.8113,-19.509 25.883,0 47.679,1.3935 55.852,-4.1805 6.8113,-6.9675 8.1735,-15.328 2.7245,-18.115 -20.434,-2.787 -42.23,-4.1805 -62.664,-5.574 v -6.9675 c -9.5358,-156.07 194.8,-202.06 318.77,-207.63 54.49,-11.148 106.26,-8.361 148.49,2.787 2.7245,1.3935 6.8113,1.3935 10.898,2.787 42.23,0 80.373,-2.787 122.6,-2.787 9.5358,-12.541 17.709,-19.509 25.883,-27.87 4.0868,-2.787 9.5358,-5.574 14.985,-6.9675 6.8113,0 14.985,0 21.796,1.3935 z"
         style="fill:none;stroke:#25221e;stroke-width:2.0653px;stroke-linecap:round;stroke-linejoin:round"
         inkscape:connector-curvature="0" />
      <path
         id="11-4"
         d="m 959.32,623.82 c 21.796,0 39.505,40.411 39.505,89.183 0,48.772 -17.709,89.183 -39.505,89.183 -20.434,0 -38.143,-40.411 -38.143,-89.183 0,-48.772 17.709,-89.183 38.143,-89.183 z"
         style="fill:none;stroke:#25221e;stroke-width:2.0653px;stroke-linecap:round;stroke-linejoin:round"
         inkscape:connector-curvature="0" />
      <path
         id="12-1"
         d="m 956.6,630.79 c 20.434,0 36.781,36.231 36.781,80.823 0,45.985 -16.347,82.216 -36.781,82.216 17.709,-4.1805 31.332,-39.018 31.332,-82.216 0,-41.805 -13.623,-76.642 -31.332,-80.823 z"
         style="fill:none;stroke:#25221e;stroke-width:2.0653px;stroke-linecap:round;stroke-linejoin:round"
         inkscape:connector-curvature="0" />
      <path
         id="13-5"
         d="m 64.322,648.91 c 4.0868,-4.1805 9.5358,-9.7544 14.985,-12.541 4.0868,-2.787 8.1735,-2.787 12.26,-1.3935 4.0868,2.787 5.449,8.361 6.8113,16.722 4.0868,18.115 13.623,76.642 -8.1735,83.61 -31.332,12.541 -39.505,-11.148 -44.954,-33.444 1.3623,-16.722 6.8113,-30.657 12.26,-44.592 2.7245,-4.1805 5.449,-6.9675 6.8113,-8.361 z"
         style="fill:none;stroke:#25221e;stroke-width:2.0653px;stroke-linecap:round;stroke-linejoin:round"
         inkscape:connector-curvature="0" />
      <path
         id="14-7"
         d="m 343.58,653.09 c 16.347,-11.148 32.694,-12.541 43.592,-2.787 16.347,15.328 2.7245,54.346 -27.245,80.823 -31.332,25.083 -61.302,30.657 -69.475,16.722 -2.7245,-5.574 -4.0868,-13.935 -1.3622,-25.083 10.898,-27.87 29.97,-51.559 54.49,-69.675 z"
         style="fill:none;stroke:#25221e;stroke-width:2.0653px;stroke-linecap:round;stroke-linejoin:round"
         inkscape:connector-curvature="0" />
      <path
         id="15-8"
         d="m 953.87,644.73 c 16.347,0 28.607,30.657 28.607,68.281 0,36.231 -12.26,66.888 -28.607,66.888 -16.347,0 -29.97,-30.657 -29.97,-66.888 0,-37.624 13.623,-68.281 29.97,-68.281 z"
         style="fill:none;stroke:#25221e;stroke-width:2.0653px;stroke-linecap:round;stroke-linejoin:round"
         inkscape:connector-curvature="0" />
      <path
         id="16-6"
         d="m 956.6,690.71 c 5.449,0 9.5358,9.7544 9.5358,20.902 0,12.541 -4.0868,22.296 -9.5358,22.296 h -1.3622 c 5.449,-1.3935 9.5358,-9.7544 9.5358,-22.296 0,-11.148 -4.0868,-19.509 -9.5358,-20.902 z"
         style="fill:none;stroke:#25221e;stroke-width:2.0653px;stroke-linecap:round;stroke-linejoin:round"
         inkscape:connector-curvature="0" />
      <path
         id="17-0"
         d="m 956.6,690.71 c 5.449,0 9.5358,9.7544 9.5358,20.902 0,12.541 -4.0868,22.296 -9.5358,22.296 -5.449,0 -10.898,-9.7544 -10.898,-22.296 0,-11.148 5.449,-20.902 10.898,-20.902 z"
         style="fill:none;stroke:#25221e;stroke-width:2.0653px;stroke-linecap:round;stroke-linejoin:round"
         inkscape:connector-curvature="0" />
      <path
         id="18-1"
         d="m 414.42,559.72 c 9.5358,0 19.072,1.3935 28.607,2.787 53.128,4.1805 106.26,4.1805 159.38,5.574 h 1.3623 c 29.97,-2.787 58.577,-2.787 88.547,1.3935 6.8113,-22.296 14.985,-44.592 21.796,-66.888 1.3622,-12.541 -57.215,-15.328 -64.026,-15.328 -54.49,-5.574 -111.7,-6.9675 -166.2,-1.3935 -16.347,1.3935 -36.781,1.3935 -49.041,15.328 -17.709,19.509 -34.056,40.411 -49.041,62.707 9.5358,-1.3935 19.072,-2.787 28.607,-4.1805 z"
         style="fill:none;stroke:#25221e;stroke-width:2.0653px;stroke-linecap:round;stroke-linejoin:round"
         inkscape:connector-curvature="0" />
      <path
         id="19-2"
         d="m 714.12,577.84 c 1.3622,2.787 2.7245,6.9675 5.449,15.328 1.3622,6.9675 10.898,110.09 9.5358,122.63 0,11.148 13.623,16.722 14.985,18.115 2.7245,1.3935 46.317,-6.9675 89.909,-11.148 5.449,0 19.072,-4.1805 23.158,-16.722 4.0868,-13.935 28.607,-86.396 -1.3623,-128.2 0,0 -1.3622,0 -1.3622,1.3935 -42.23,0 -80.373,2.787 -122.6,2.787 -6.8113,-1.3935 -12.26,-2.787 -17.709,-4.1805 z"
         style="fill:none;stroke:#25221e;stroke-width:2.0653px;stroke-linecap:round;stroke-linejoin:round"
         inkscape:connector-curvature="0" />
      <path
         id="20-4"
         d="m 487.98,463.57 c 62.664,-6.9675 185.27,-18.115 284.71,1.3935 10.898,2.787 20.434,4.1805 29.97,6.9675 -8.1735,-1.3935 -16.347,-1.3935 -24.521,-1.3935 -12.26,0 -25.883,1.3935 -36.781,4.1805 -85.822,-13.935 -166.2,-16.722 -253.38,-11.148 z"
         style="fill:none;stroke:#25221e;stroke-width:2.0653px;stroke-linecap:round;stroke-linejoin:round"
         inkscape:connector-curvature="0" />
      <path
         id="21-0"
         d="m 622.85,679.56 54.49,-6.9675 v 2.787 l -53.128,6.9675 h -1.3622 v 1.3935 h -1.3623 1.3623 v 1.3935 1.3935 1.3935 h 1.3622 v 1.3935 1.3935 1.3935 1.3935 h 1.3622 v 1.3935 1.3935 l 53.128,-6.9675 v 1.3935 l -54.49,8.3609 c -1.3622,-5.574 -2.7245,-9.7544 -4.0868,-15.328 0,-1.3935 1.3622,-2.787 2.7245,-4.1805 z m 57.215,16.722 v 2.787 l -53.128,6.9675 h 1.3622 v 1.3935 1.3935 1.3935 1.3935 1.3935 1.3935 l 1.3622,1.3935 v 1.3935 1.3935 1.3935 l 50.403,-5.574 v 1.3935 l -51.766,6.9675 c -1.3622,-6.9675 -1.3622,-12.541 -2.7245,-18.115 z m -1.3622,23.689 v 1.3935 l -49.041,6.9675 v 1.3935 1.3935 1.3935 1.3935 1.3935 1.3935 1.3935 1.3935 1.3935 l 47.679,-5.574 -1.3622,1.3935 -47.679,6.9674 v -6.9674 -9.7544 z"
         style="fill:none;stroke:#25221e;stroke-width:2.0653px;stroke-linecap:round;stroke-linejoin:round"
         inkscape:connector-curvature="0" />
      <path
         id="22-7"
         d="m 75.22,646.12 c 5.449,0 10.898,6.9675 10.898,18.115 0,9.7544 -5.449,18.115 -10.898,18.115 -6.8113,0 -12.26,-8.361 -12.26,-18.115 0,-11.148 5.449,-18.115 12.26,-18.115 z"
         style="fill:none;stroke:#25221e;stroke-width:2.0653px;stroke-linecap:round;stroke-linejoin:round"
         inkscape:connector-curvature="0" />
      <path
         id="23-2"
         d="m 84.756,693.5 c 5.449,0 9.5358,6.9675 9.5358,15.328 0,8.361 -4.0868,15.328 -9.5358,15.328 -6.8113,0 -10.898,-6.9675 -10.898,-15.328 0,-8.361 4.0868,-15.328 10.898,-15.328 z"
         style="fill:none;stroke:#25221e;stroke-width:2.0653px;stroke-linecap:round;stroke-linejoin:round"
         inkscape:connector-curvature="0" />
      <path
         id="24-9"
         d="m 62.96,687.93 c 4.0868,0 8.1735,5.574 8.1735,12.541 0,6.9675 -4.0868,12.541 -8.1735,12.541 -4.0868,0 -8.1735,-5.574 -8.1735,-12.541 0,-6.9675 4.0868,-12.541 8.1735,-12.541 z"
         style="fill:none;stroke:#25221e;stroke-width:2.0653px;stroke-linecap:round;stroke-linejoin:round"
         inkscape:connector-curvature="0" />
      <path
         id="25-6"
         d="m 319.06,700.47 c 6.8113,0 13.623,8.361 13.623,19.509 0,9.7544 -6.8113,18.115 -13.623,18.115 -6.8113,0 -12.26,-8.361 -12.26,-18.115 0,-11.148 5.449,-19.509 12.26,-19.509 z"
         style="fill:none;stroke:#25221e;stroke-width:2.0653px;stroke-linecap:round;stroke-linejoin:round"
         inkscape:connector-curvature="0" />
      <path
         id="26-8"
         d="m 365.38,661.45 c 6.8113,0 10.898,8.361 10.898,18.115 0,8.361 -4.0868,16.722 -10.898,16.722 -5.449,0 -10.898,-8.361 -10.898,-16.722 0,-9.7544 5.449,-18.115 10.898,-18.115 z"
         style="fill:none;stroke:#25221e;stroke-width:2.0653px;stroke-linecap:round;stroke-linejoin:round"
         inkscape:connector-curvature="0" />
      <path
         id="27"
         d="m 349.03,699.07 c 4.0868,0 8.1735,6.9675 8.1735,13.935 0,8.361 -4.0868,15.328 -8.1735,15.328 -5.449,0 -9.5358,-6.9675 -9.5358,-15.328 0,-6.9675 4.0868,-13.935 9.5358,-13.935 z"
         style="fill:none;stroke:#25221e;stroke-width:2.0653px;stroke-linecap:round;stroke-linejoin:round"
         inkscape:connector-curvature="0" />
      <path
         id="28"
         d="m 839.45,588.99 c 5.449,0 5.449,1.3935 8.1735,2.787 2.7245,1.3935 5.449,-2.787 4.0868,-5.574 -2.7245,-2.787 -6.8113,-2.787 -10.898,-2.787 -8.1735,0 -16.347,2.787 -20.434,9.7544 -1.3623,2.787 2.7245,4.1805 5.449,2.787 2.7245,-4.1805 9.5358,-6.9674 13.623,-6.9674 z"
         style="fill:none;stroke:#25221e;stroke-width:2.0653px;stroke-linecap:round;stroke-linejoin:round"
         inkscape:connector-curvature="0" />
      <path
         id="29"
         d="m 195.1,803.59 c -20.434,-43.198 -17.709,-104.51 9.5358,-143.53 2.7245,0 4.0868,-1.3935 6.8113,-1.3935 -31.332,39.018 -32.694,100.33 -12.26,143.53 -1.3622,1.3935 -2.7245,1.3935 -4.0868,1.3935 z m -4.0868,-1.3935 c -2.7245,0 -4.0868,-1.3935 -5.449,-2.787 -16.347,-43.198 -14.985,-91.97 6.8113,-132.38 1.3622,-1.3935 4.0868,-2.787 6.8113,-4.1805 -24.521,41.805 -27.245,94.757 -8.1735,139.35 z m -12.26,-11.148 c -4.0868,-5.574 -8.1735,-12.541 -9.5358,-19.509 -5.449,-27.87 -2.7245,-58.527 5.449,-85.003 2.7245,-4.1805 5.449,-8.361 9.5358,-12.541 -16.347,34.837 -19.072,80.823 -5.449,117.05 z m 38.143,-133.78 h 5.449 c -31.332,37.624 -38.143,97.544 -16.347,140.74 -1.3622,1.3935 -2.7245,1.3935 -2.7245,2.787 -21.796,-44.592 -17.709,-103.12 13.623,-142.14 z m 10.898,0 c 1.3622,0 2.7245,1.3935 4.0868,1.3935 -32.694,30.657 -39.505,90.577 -21.796,130.99 0,1.3935 -1.3622,2.787 -1.3622,4.1805 -19.072,-43.198 -14.985,-101.72 19.072,-136.56 z m 9.5358,2.787 c 0,0 4.0868,1.3935 2.7245,1.3935 -31.332,27.87 -38.143,79.429 -24.521,118.45 -1.3622,1.3935 -1.3622,4.1805 -2.7245,5.574 -14.985,-39.018 -9.5358,-97.544 24.521,-125.41 z m 6.8113,4.1805 c 1.3622,0 2.7245,1.3935 2.7245,1.3935 -28.607,23.689 -34.056,68.281 -27.245,101.72 -1.3623,2.787 -1.3623,4.1805 -2.7245,6.9674 -9.5358,-36.231 -4.0868,-86.396 27.245,-110.09 z m 5.449,5.574 c 0,1.3935 1.3622,1.3935 1.3622,2.787 -21.796,18.115 -28.607,52.953 -25.883,79.429 -1.3622,2.787 -2.7245,5.574 -2.7245,8.3609 -5.449,-30.657 1.3623,-71.068 27.245,-90.577 z m 2.7245,8.361 v 4.1805 c -12.26,13.935 -19.072,32.05 -20.434,50.166 -1.3623,2.787 -2.7245,6.9675 -4.0868,9.7544 0,-22.296 6.8113,-50.166 24.521,-64.101 z m -1.3623,11.148 c -2.7245,12.541 -8.1735,23.689 -13.623,33.444 2.7245,-11.148 6.8113,-23.689 13.623,-33.444 z"
         style="fill:none;stroke:#25221e;stroke-width:2.0653px;stroke-linecap:round;stroke-linejoin:round"
         inkscape:connector-curvature="0" />
      <path
         id="30"
         d="m 740,513.74 c 1.3623,-5.574 2.7245,-12.541 5.449,-16.722 0,26.476 -1.3623,52.953 -4.0868,80.823 -2.7245,0 -8.1736,1.3935 -10.898,0 l -12.26,-2.787 z m 8.1735,-19.509 c 2.7245,-2.787 8.1735,-4.1805 12.26,-4.1805 47.679,-1.3935 99.445,11.148 132.14,51.559 -5.449,1.3935 -9.5358,4.1805 -14.985,6.9674 -8.1735,8.361 -17.709,16.722 -24.521,26.476 -35.419,0 -72.2,2.787 -108.98,2.787 2.7245,-27.87 4.0868,-55.74 4.0868,-83.61 z"
         style="fill:none;stroke:#25221e;stroke-width:2.0653px;stroke-linecap:round;stroke-linejoin:round"
         inkscape:connector-curvature="0" />
      <path
         id="31"
         d="m 754.99,544.4 h 13.623 13.623 c 2.7245,0 4.0868,0 5.449,1.3935 1.3623,1.3935 2.7245,4.1805 2.7245,5.574 v 6.9675 c -1.3622,1.3935 -1.3622,4.1805 -1.3622,6.9675 0,1.3935 0,2.787 -1.3623,4.1805 -1.3622,1.3935 -4.0868,1.3935 -5.449,1.3935 -5.449,0 -10.898,0 -14.985,-1.3935 -4.0868,0 -8.1735,0 -13.623,-1.3935 -1.3623,0 -2.7245,0 -4.0868,-1.3935 0,-1.3935 -1.3623,-2.787 -1.3623,-4.1805 v -6.9675 c 1.3623,-1.3935 1.3623,-2.787 1.3623,-5.574 0,-1.3935 0,-2.787 1.3622,-4.1805 1.3622,-1.3935 2.7245,-1.3935 4.0868,-1.3935 z"
         style="fill:none;stroke:#25221e;stroke-width:2.0653px;stroke-linecap:round;stroke-linejoin:round"
         inkscape:connector-curvature="0" />
      <path
         id="32"
         d="m 735.91,577.84 c -5.449,2.787 -12.26,1.3935 -16.347,-4.1805 0,-6.9675 1.3622,-12.541 4.0868,-18.115 4.0868,-5.574 13.623,-8.361 24.521,-8.361 0,1.3935 -1.3622,1.3935 -1.3622,1.3935 v 6.9675 4.1805 c -4.0868,0 -8.1735,-1.3935 -10.898,1.3935 -4.0868,2.787 -2.7245,2.787 -2.7245,6.9675 1.3623,4.1805 4.0868,9.7544 2.7245,9.7544 z"
         style="fill:none;stroke:#25221e;stroke-width:2.0653px;stroke-linecap:round;stroke-linejoin:round"
         inkscape:connector-curvature="0" />
      <path
         id="33"
         d="m 735.91,577.84 c -1.3622,1.3935 -4.0868,1.3935 -5.449,1.3935 0,-4.1805 -4.0868,-16.722 2.7245,-20.902 4.0868,-2.787 8.1736,-1.3935 12.26,-1.3935 h 1.3622 v 2.787 c -4.0868,0 -8.1735,-1.3935 -10.898,1.3935 -4.0868,2.787 -2.7245,2.787 -2.7245,6.9675 1.3623,4.1805 4.0868,9.7544 2.7245,9.7544 z"
         style="fill:none;stroke:#25221e;stroke-width:2.0653px;stroke-linecap:round;stroke-linejoin:round"
         inkscape:connector-curvature="0" />
      <path
         id="34"
         d="m 754.99,541.61 h 14.985 16.347 c 2.7245,0 4.0868,1.3935 6.8113,2.787 1.3622,1.3935 1.3622,4.1805 1.3622,5.574 v 8.361 8.361 c 0,1.3935 -1.3622,4.1805 -2.7245,5.574 -1.3622,1.3935 -4.0868,1.3935 -6.8113,1.3935 -5.449,0 -10.898,-1.3935 -16.347,-1.3935 -5.449,0 -10.898,-1.3935 -14.985,-1.3935 -2.7245,0 -4.0868,-1.3935 -5.449,-2.787 0,-1.3935 -1.3622,-2.787 -1.3622,-5.574 v -6.9675 -6.9675 c 1.3622,-1.3935 1.3622,-2.787 2.7245,-4.1805 1.3622,-1.3935 2.7245,-2.787 5.449,-2.787 z"
         style="fill:none;stroke:#25221e;stroke-width:2.0653px;stroke-linecap:round;stroke-linejoin:round"
         inkscape:connector-curvature="0" />
      <path
         id="35"
         d="m 135.16,828.67 c 8.1735,22.296 19.072,36.231 32.694,37.624 h -32.694 -1.3623 c -38.143,-2.787 -69.475,-36.231 -77.649,-82.216 5.449,11.148 10.898,19.509 17.709,27.87 16.347,16.722 29.97,15.328 61.301,16.722 z m 35.419,37.624 h -1.3623 z"
         style="fill:none;stroke:#25221e;stroke-width:2.0653px;stroke-linecap:round;stroke-linejoin:round"
         inkscape:connector-curvature="0" />
      <path
         id="36"
         d="m 199.19,834.24 c -8.1735,19.509 -19.072,32.05 -31.332,32.05 -12.26,0 -24.521,-13.935 -32.694,-37.624 1.3623,0 2.7245,0 2.7245,1.3935 h 1.3623 1.3622 1.3623 1.3622 -1.3622 z m 2.7245,0 h 1.3622 1.3623 -1.3623"
         style="fill:none;stroke:#25221e;stroke-width:2.0653px;stroke-linecap:round;stroke-linejoin:round"
         inkscape:connector-curvature="0" />
      <path
         id="37"
         d="m 549.28,662.84 c 28.607,0 51.766,45.985 51.766,100.33 0,55.74 -23.158,100.33 -51.766,100.33 -27.245,0 -50.403,-44.592 -50.403,-100.33 0,-54.346 23.158,-100.33 50.403,-100.33 z"
         style="fill:none;stroke:#25221e;stroke-width:2.0653px;stroke-linecap:round;stroke-linejoin:round"
         inkscape:connector-curvature="0" />
      <path
         id="38"
         d="m 547.92,664.24 c 27.245,0 49.041,44.592 49.041,98.938 0,54.346 -21.796,98.938 -49.041,98.938 -25.883,0 -47.679,-44.592 -47.679,-98.938 0,-54.346 21.796,-98.938 47.679,-98.938 z"
         style="fill:none;stroke:#25221e;stroke-width:2.0653px;stroke-linecap:round;stroke-linejoin:round"
         inkscape:connector-curvature="0" />
      <path
         id="39"
         d="m 545.2,671.2 c 25.883,0 47.679,41.805 47.679,91.97 0,50.166 -21.796,90.577 -47.679,90.577 23.158,-4.1805 40.868,-43.198 40.868,-90.577 0,-47.379 -17.709,-87.79 -40.868,-91.97 z"
         style="fill:none;stroke:#25221e;stroke-width:2.0653px;stroke-linecap:round;stroke-linejoin:round"
         inkscape:connector-curvature="0" />
      <path
         id="40"
         d="m 541.11,687.93 c 21.796,0 38.143,33.444 38.143,75.249 0,41.805 -16.347,75.249 -38.143,75.249 -20.434,0 -36.781,-33.444 -36.781,-75.249 0,-41.805 16.347,-75.249 36.781,-75.249 z"
         style="fill:none;stroke:#25221e;stroke-width:2.0653px;stroke-linecap:round;stroke-linejoin:round"
         inkscape:connector-curvature="0" />
      <path
         id="41"
         d="m 545.2,738.09 c 6.8113,0 13.623,11.148 13.623,25.083 0,13.935 -6.8113,25.083 -13.623,25.083 h -1.3622 c 6.8113,-2.787 12.26,-12.541 12.26,-25.083 0,-12.541 -5.449,-23.689 -12.26,-25.083 z"
         style="fill:none;stroke:#25221e;stroke-width:2.0653px;stroke-linecap:round;stroke-linejoin:round"
         inkscape:connector-curvature="0" />
      <path
         id="42"
         d="m 545.2,738.09 c 6.8113,0 13.623,11.148 13.623,25.083 0,13.935 -6.8113,25.083 -13.623,25.083 -6.8113,0 -13.623,-11.148 -13.623,-25.083 0,-13.935 6.8113,-25.083 13.623,-25.083 z"
         style="fill:none;stroke:#25221e;stroke-width:2.0653px;stroke-linecap:round;stroke-linejoin:round"
         inkscape:connector-curvature="0" />
      <path
         id="43"
         d="m 527.49,639.15 c 2.7245,-1.3935 9.5358,-1.3935 14.985,-1.3935 -32.694,2.787 -59.939,58.527 -59.939,125.41 0,20.902 2.7245,41.805 8.1735,61.314 6.8113,25.083 23.158,62.707 53.128,64.101 h -24.521 -27.245 c -16.347,-1.3935 -31.332,-16.722 -42.23,-40.411 -2.7245,-5.574 -5.449,-13.935 -6.8113,-22.296 4.0868,-6.9675 6.8113,-16.722 10.898,-26.476 12.26,-34.837 23.158,-82.216 36.781,-112.87 8.1735,-23.689 21.796,-40.411 36.781,-47.379 z"
         style="fill:none;stroke:#25221e;stroke-width:2.0653px;stroke-linecap:round;stroke-linejoin:round"
         inkscape:connector-curvature="0" />
      <path
         id="44"
         d="m 940.25,601.53 h 13.623 c -25.883,4.1805 -46.317,52.953 -46.317,111.48 0,59.92 21.796,110.09 47.679,111.48 h -19.072 -20.434 c -13.623,-1.3935 -24.521,-15.328 -32.694,-36.231 -2.7245,-5.574 -4.0868,-12.541 -6.8113,-20.902 16.347,-34.837 24.521,-91.97 42.23,-133.78 6.8113,-13.935 13.623,-25.083 21.796,-32.05 z m 19.072,0 z"
         style="fill:none;stroke:#25221e;stroke-width:2.0653px;stroke-linecap:round;stroke-linejoin:round"
         inkscape:connector-curvature="0" />
      <path
         id="45"
         d="m 853.07,793.83 c 57.215,-36.231 1.3622,-239.68 113.07,-204.84 13.623,5.574 35.419,34.837 38.143,89.183 -1.3623,-5.574 -2.7245,-12.541 -4.0868,-18.115 -5.449,-37.624 -21.796,-64.101 -42.23,-64.101 -16.347,0 -29.97,15.328 -39.505,37.624 -24.521,55.74 -29.97,139.35 -59.939,160.25 h -5.449 z"
         style="fill:none;stroke:#25221e;stroke-width:2.0653px;stroke-linecap:round;stroke-linejoin:round"
         inkscape:connector-curvature="0" />
      <path
         id="46"
         d="m 606.5,719.98 c -9.5358,-48.772 -34.056,-85.003 -62.664,-85.003 -21.796,-1.3935 -42.23,20.902 -53.128,51.559 -13.623,30.657 -24.521,78.036 -36.781,112.87 -9.5358,22.296 -12.26,41.805 -35.419,41.805 0,1.3935 0,1.3935 -1.3623,1.3935 39.505,-50.166 13.623,-193.7 107.62,-221.57 h 9.5358 c 51.766,0 87.184,64.101 79.011,142.14 -1.3622,9.7544 -2.7245,18.115 -4.0868,26.476 v -26.476 c 0,-15.328 -1.3622,-29.263 -2.7245,-43.198 z"
         style="fill:none;stroke:#25221e;stroke-width:2.0653px;stroke-linecap:round;stroke-linejoin:round"
         inkscape:connector-curvature="0" />
      <path
         id="47"
         d="m 181.48,832.85 c -2.7245,2.787 -5.449,5.574 -9.5358,5.574 -4.0868,0 -6.8113,-2.787 -9.5358,-6.9675"
         style="fill:none;stroke:#25221e;stroke-width:2.0653px;stroke-linecap:round;stroke-linejoin:round"
         inkscape:connector-curvature="0" />
      <path
         id="48"
         d="m 166.49,866.29 h -31.332 -2.7245 c -36.781,-2.787 -68.113,-37.624 -76.286,-82.216 -8.1735,-18.115 -13.623,-39.018 -13.623,-61.314 0,-51.559 25.883,-96.151 62.664,-115.66 35.419,-20.902 77.649,-30.657 121.24,-36.231 49.041,-5.574 99.445,-6.9675 148.49,-4.1805 21.796,-33.444 42.23,-64.101 64.026,-82.216 19.072,-12.541 31.332,-18.115 49.041,-20.902 102.17,-11.148 361,-32.05 426.39,80.823 13.623,2.787 28.607,4.1805 38.143,18.115 0,0 1.3622,0 1.3622,1.3935 2.7245,-2.787 5.449,-4.1805 9.5358,-4.1805 9.5358,0 16.347,8.361 16.347,16.722 0,2.787 0,4.1805 -1.3622,6.9675 0,0 0,1.3935 1.3622,2.787 0,4.1805 4.0868,6.9675 6.8113,13.935 1.3622,2.787 13.623,2.787 9.5358,19.509 v 1.3935 c 5.4491,6.9675 9.5358,29.263 9.5358,57.133 v 11.148 c 0,6.9675 1.3623,15.328 1.3623,22.296 0,62.707 -23.158,112.87 -51.766,112.87 h -1.3623 -17.709 -20.434 c -13.623,-1.3935 -24.521,-15.328 -32.694,-36.231 -2.7245,-5.574 -4.0868,-12.541 -5.449,-20.902 -5.449,9.7544 -10.898,20.902 -19.072,26.476 -87.184,12.541 -173.01,26.476 -260.19,40.411 l 1.3623,-1.3935 c -10.898,32.05 -29.97,54.346 -50.403,55.74 -2.7245,0.0308 -4.0868,0.13565 -6.8113,0 h -19.072 -27.245 c -19.072,-1.3935 -34.056,-16.722 -44.954,-40.411 -4.0868,-5.574 -6.8113,-13.935 -8.1735,-22.296 -5.449,9.7545 -12.26,15.328 -24.521,15.328 -24.521,2.787 -54.49,2.787 -84.46,1.3935 -43.592,-1.3935 -91.271,-5.574 -136.23,-8.361 l 1.3622,1.3935 c -6.8113,16.722 -16.347,27.87 -27.245,30.657 h -5.449"
         sodipodi:nodetypes="ccccsccccccccsscccccsccssssccccccccccccsccccccccccc"
         style="fill:none;stroke:#25221e;stroke-width:6.196px;stroke-linecap:round;stroke-linejoin:round"
         inkscape:connector-curvature="0" />
    </g>
    <path
       style="stroke-width:1.18262"
       id="path38946"
       d="m 51.569576,239.32581 c 2.70817,0 4.89603,2.18785 4.89603,4.89607 0,2.70818 -2.18786,4.89603 -4.89603,4.89603 -2.70822,0 -4.89607,-2.18785 -4.89607,-4.89603 0,-2.69637 2.19969,-4.89607 4.89607,-4.89607 z m 5.98405,31.18574 c -1.05253,-0.73326 -1.30087,-2.16421 -0.5795,-3.21674 0.73322,-1.05254 2.16421,-1.30088 3.21674,-0.5795 2.35341,1.63203 4.65953,2.44803 6.91832,2.43619 2.25883,0 4.56491,-0.8278 6.91832,-2.43619 1.05254,-0.72138 2.48353,-0.46119 3.2049,0.5913 0.72142,1.05254 0.46123,2.48352 -0.5913,3.20494 -3.13392,2.15236 -6.31518,3.25219 -9.54372,3.25219 -3.22859,0 -6.40984,-1.07618 -9.54376,-3.25219 z m 26.14776,-31.18574 c 2.70817,0 4.89602,2.18785 4.89602,4.89607 0,2.70818 -2.18785,4.89603 -4.89602,4.89603 -2.70822,0 -4.89608,-2.18785 -4.89608,-4.89603 0,-2.69637 2.18786,-4.89607 4.89608,-4.89607 z m -62.89181,88.99223 c 3.96181,-15.04294 9.12986,-19.31222 19.91536,-28.24099 1.59651,-1.31272 3.31133,-2.74366 4.96701,-4.13916 0.0358,-0.0224 0.0711,-0.059 0.10638,-0.0827 0.36652,-0.47308 0.61495,-0.79235 0.86329,-1.09987 1.22994,-1.56106 2.24698,-2.85009 3.06298,-4.56491 -5.17986,-2.77916 -10.00495,-6.93017 -14.13231,-12.54761 -2.90923,0.73326 -16.6158,6.06688 -16.49757,1.19445 -1.69113,-10.67903 -2.67269,-21.40544 -2.2233,-32.21459 0.52032,-12.382 3.28768,-31.39854 10.13506,-42.18404 4.89603,-7.68707 10.99835,-13.1626 18.16506,-16.66313 7.11937,-3.47693 15.27943,-4.97885 24.33831,-4.75416 7.78165,0.18907 15.32676,2.11692 22.03223,5.97225 6.26788,3.59516 11.802554,8.85784 16.130964,15.91807 1.59651,2.6136 2.96836,5.34546 4.12732,8.2192 4.1865,10.34795 4.57676,21.60649 4.70683,32.66397 0.0474,4.29293 -0.27221,31.45773 -2.8028,33.23168 -2.14052,1.51372 -6.87103,-4.68318 -11.27038,-6.36251 -4.789604,7.78165 -11.045694,13.60015 -17.975814,17.26624 0.62675,1.79759 1.49008,3.16945 2.56626,4.86058 l 0.46124,0.73321 c 14.274234,6.45714 20.684024,18.30697 24.870524,32.80594 h -4.82509 c -3.63064,-11.97995 -9.035244,-22.29242 -20.707724,-28.00449 -1.7621,2.1997 -3.81984,4.04459 -6.06683,5.51102 -4.29292,2.81465 -9.30722,4.26928 -14.30972,4.28108 -5.01429,0.0134 -10.01679,-1.43094 -14.28607,-4.39935 -0.816,-0.56766 -1.60835,-1.19445 -2.37705,-1.88038 -1.0289,-0.86328 -1.99861,-1.82119 -2.92107,-2.85009 -1.15896,0.96976 -2.2115,1.83305 -3.2049,2.66089 -9.67383,7.9945 -14.46343,11.95631 -18.07043,24.68132 h -4.7778 z m 57.88931,-43.33121 c 0.52032,-0.23645 1.05254,-0.48488 1.59655,-0.74506 0.0711,-0.0358 0.14169,-0.059 0.20114,-0.0827 7.86438,-3.93812 14.80639,-11.17576 19.17025,-21.14526 1.537424,-3.51237 2.235144,-6.69363 2.542664,-9.87488 0.92242,-9.7921 0.0711,-23.01379 0.0711,-33.17254 -8.030034,1.24178 -11.388654,-4.13917 -12.866934,-12.15731 -16.41479,14.97195 -35.53775,18.27147 -56.96684,11.64878 0,10.05229 -0.80419,22.67088 -0.0134,32.39199 0.23645,2.93292 0.816,5.91312 2.06959,9.2008 9.29542,24.31467 28.32376,30.74815 44.19453,23.93626 z m -24.7641,7.13117 c -0.98156,2.10507 -2.18785,3.63064 -3.64244,5.47553 0.83964,1.08802 1.75026,2.06958 2.73182,2.93291 0.17745,0.14169 0.3549,0.28383 0.53221,0.42597 3.7962,2.93291 8.23104,4.44664 12.67768,4.50577 4.43484,0.0711 8.89332,-1.31267 12.71317,-4.16281 1.50192,-1.12347 2.90927,-2.47168 4.17465,-4.03274 l -0.0134,-0.0224 c -1.1826,-1.86853 -2.1642,-3.40594 -2.89742,-5.3809 -8.51487,3.32317 -17.73931,3.52417 -26.27782,0.26014 z" />
  </g>
</svg>
